<?xml version="1.0" standalone="no"?>
<!DOCTYPE svg PUBLIC "-//W3C//DTD SVG 20010904//EN"
 "http://www.w3.org/TR/2001/REC-SVG-20010904/DTD/svg10.dtd">
<svg version="1.0" xmlns="http://www.w3.org/2000/svg"
 width="186.000000pt" height="186.000000pt" viewBox="0 0 186.000000 186.000000"
 preserveAspectRatio="xMidYMid meet">
<metadata>
Created by potrace 1.11, written by Peter Selinger 2001-2013
</metadata>
<g transform="translate(0.000000,186.000000) scale(0.100000,-0.100000)"
fill="#000000" stroke="none">
<path d="M1383 1409 c-24 -9 -30 -25 -138 -394 -42 -142 -77 -272 -77 -289 -2
-47 47 -71 86 -43 17 12 207 627 208 674 1 42 -37 68 -79 52z"/>
<path d="M578 1276 c-105 -28 -162 -105 -163 -221 0 -60 5 -81 33 -137 36 -74
127 -177 230 -261 101 -83 114 -86 181 -40 31 20 99 81 152 134 124 124 164
199 163 304 -1 105 -39 166 -133 215 -44 22 -143 16 -198 -12 l-48 -26 -45 23
c-58 29 -113 36 -172 21z m104 -115 c13 -5 39 -23 57 -40 42 -39 72 -39 112 0
127 124 264 4 183 -160 -26 -52 -148 -184 -211 -229 l-31 -22 -79 70 c-153
132 -211 247 -171 336 20 43 88 65 140 45z"/>
<path d="M144 1075 c-118 -118 -134 -143 -115 -173 22 -35 247 -252 261 -252
29 0 60 30 60 58 0 21 -22 49 -95 122 l-95 94 95 97 c96 97 107 118 85 160 -7
12 -21 19 -42 19 -26 0 -49 -18 -154 -125z"/>
<path d="M1502 1180 c-25 -40 -14 -61 83 -159 l95 -97 -95 -94 c-73 -73 -95
-101 -95 -122 0 -27 31 -58 59 -58 8 0 72 57 143 127 93 93 128 134 128 151 0
18 -34 58 -124 148 -101 101 -129 124 -153 124 -17 0 -33 -8 -41 -20z"/>
</g>
</svg>
